<mxfile host="app.diagrams.net" modified="2023-08-01T16:17:00.892Z" agent="Mozilla/5.0 (Windows NT 10.0; Win64; x64) AppleWebKit/537.36 (KHTML, like Gecko) Chrome/115.0.0.0 Safari/537.36" etag="hng6pXmwFT0OZPNEzkz6" version="21.6.6" type="device">
  <diagram name="Page-1" id="e7e014a7-5840-1c2e-5031-d8a46d1fe8dd">
    <mxGraphModel dx="880" dy="421" grid="1" gridSize="10" guides="1" tooltips="1" connect="1" arrows="1" fold="1" page="1" pageScale="1" pageWidth="827" pageHeight="583" background="none" math="0" shadow="0">
      <root>
        <mxCell id="0" />
        <mxCell id="1" parent="0" />
        <mxCell id="2" value="Entidade" style="swimlane;whiteSpace=wrap" parent="1" vertex="1">
          <mxGeometry x="130" y="40" width="280" height="1432" as="geometry" />
        </mxCell>
        <mxCell id="7" value="Solicita a entrada&#xa; de equipamento" style="" parent="2" vertex="1">
          <mxGeometry x="85" y="247" width="110" height="50" as="geometry" />
        </mxCell>
        <mxCell id="Z61d-e_cpG5wXxmXnKD5-111" value="fornece os dados &#xa;solicitados" style="" parent="2" vertex="1">
          <mxGeometry x="79.25" y="732" width="121.5" height="50" as="geometry" />
        </mxCell>
        <mxCell id="3" value="Técnico" style="swimlane;whiteSpace=wrap;startSize=23;" parent="1" vertex="1">
          <mxGeometry x="410" y="40" width="280" height="1432" as="geometry" />
        </mxCell>
        <mxCell id="15" value="técnico cadastrado?" style="" parent="3" vertex="1">
          <mxGeometry x="70" y="80" width="115.5" height="50" as="geometry" />
        </mxCell>
        <mxCell id="16" value="realizar login" style="" parent="3" vertex="1">
          <mxGeometry x="73.5" y="247" width="110" height="50" as="geometry" />
        </mxCell>
        <mxCell id="Z61d-e_cpG5wXxmXnKD5-74" style="edgeStyle=orthogonalEdgeStyle;rounded=0;orthogonalLoop=1;jettySize=auto;html=1;entryX=0.5;entryY=0;entryDx=0;entryDy=0;fillColor=#e51400;strokeColor=#B20000;" parent="3" source="21" target="16" edge="1">
          <mxGeometry relative="1" as="geometry" />
        </mxCell>
        <mxCell id="21" value="yes / no" style="rhombus;fillColor=#ffffc0;strokeColor=#ff0000;" parent="3" vertex="1">
          <mxGeometry x="86.5" y="165" width="84" height="43" as="geometry" />
        </mxCell>
        <mxCell id="8" value="entidade cadastrada?" style="" parent="3" vertex="1">
          <mxGeometry x="71" y="318" width="125" height="50" as="geometry" />
        </mxCell>
        <mxCell id="Z61d-e_cpG5wXxmXnKD5-82" value="yes / no" style="rhombus;fillColor=#ffffc0;strokeColor=#ff0000;" parent="3" vertex="1">
          <mxGeometry x="91.5" y="394" width="84" height="43" as="geometry" />
        </mxCell>
        <mxCell id="Z61d-e_cpG5wXxmXnKD5-84" value="" style="endArrow=classic;html=1;rounded=0;exitX=0.5;exitY=1;exitDx=0;exitDy=0;entryX=0.5;entryY=0;entryDx=0;entryDy=0;" parent="3" source="8" target="Z61d-e_cpG5wXxmXnKD5-82" edge="1">
          <mxGeometry width="50" height="50" relative="1" as="geometry">
            <mxPoint x="115" y="402" as="sourcePoint" />
            <mxPoint x="165" y="352" as="targetPoint" />
          </mxGeometry>
        </mxCell>
        <mxCell id="Z61d-e_cpG5wXxmXnKD5-88" value="máquina cadastrada?" style="" parent="3" vertex="1">
          <mxGeometry x="72.75" y="469" width="121.5" height="50" as="geometry" />
        </mxCell>
        <mxCell id="Z61d-e_cpG5wXxmXnKD5-89" value="" style="endArrow=classic;html=1;rounded=0;exitX=0.5;exitY=1;exitDx=0;exitDy=0;entryX=0.5;entryY=0;entryDx=0;entryDy=0;fillColor=#e51400;strokeColor=#B20000;" parent="3" source="Z61d-e_cpG5wXxmXnKD5-82" target="Z61d-e_cpG5wXxmXnKD5-88" edge="1">
          <mxGeometry width="50" height="50" relative="1" as="geometry">
            <mxPoint x="115" y="522" as="sourcePoint" />
            <mxPoint x="165" y="472" as="targetPoint" />
          </mxGeometry>
        </mxCell>
        <mxCell id="Z61d-e_cpG5wXxmXnKD5-93" value="realizar entrada" style="" parent="3" vertex="1">
          <mxGeometry x="73.75" y="633" width="121.5" height="50" as="geometry" />
        </mxCell>
        <mxCell id="Z61d-e_cpG5wXxmXnKD5-96" value="yes / no" style="rhombus;fillColor=#ffffc0;strokeColor=#ff0000;" parent="3" vertex="1">
          <mxGeometry x="92" y="556" width="84" height="43" as="geometry" />
        </mxCell>
        <mxCell id="Z61d-e_cpG5wXxmXnKD5-104" value="" style="endArrow=classic;html=1;rounded=0;exitX=0.5;exitY=1;exitDx=0;exitDy=0;entryX=0.5;entryY=0;entryDx=0;entryDy=0;fillColor=#e51400;strokeColor=#B20000;" parent="3" source="Z61d-e_cpG5wXxmXnKD5-96" target="Z61d-e_cpG5wXxmXnKD5-93" edge="1">
          <mxGeometry width="50" height="50" relative="1" as="geometry">
            <mxPoint x="115" y="642" as="sourcePoint" />
            <mxPoint x="165" y="592" as="targetPoint" />
          </mxGeometry>
        </mxCell>
        <mxCell id="Z61d-e_cpG5wXxmXnKD5-109" value="solicita dados" style="" parent="3" vertex="1">
          <mxGeometry x="73.5" y="732" width="121.5" height="50" as="geometry" />
        </mxCell>
        <mxCell id="Z61d-e_cpG5wXxmXnKD5-110" value="" style="endArrow=classic;html=1;rounded=0;exitX=0.5;exitY=1;exitDx=0;exitDy=0;entryX=0.5;entryY=0;entryDx=0;entryDy=0;" parent="3" source="Z61d-e_cpG5wXxmXnKD5-93" target="Z61d-e_cpG5wXxmXnKD5-109" edge="1">
          <mxGeometry width="50" height="50" relative="1" as="geometry">
            <mxPoint x="115" y="752" as="sourcePoint" />
            <mxPoint x="165" y="702" as="targetPoint" />
          </mxGeometry>
        </mxCell>
        <mxCell id="Z61d-e_cpG5wXxmXnKD5-107" value="" style="endArrow=classic;html=1;rounded=0;entryX=0.5;entryY=0;entryDx=0;entryDy=0;exitX=0.5;exitY=1;exitDx=0;exitDy=0;" parent="3" source="Z61d-e_cpG5wXxmXnKD5-88" target="Z61d-e_cpG5wXxmXnKD5-96" edge="1">
          <mxGeometry width="50" height="50" relative="1" as="geometry">
            <mxPoint x="135" y="512" as="sourcePoint" />
            <mxPoint x="165" y="592" as="targetPoint" />
          </mxGeometry>
        </mxCell>
        <mxCell id="Z61d-e_cpG5wXxmXnKD5-130" value="" style="endArrow=classic;html=1;rounded=0;entryX=0.5;entryY=0;entryDx=0;entryDy=0;exitX=0.5;exitY=1;exitDx=0;exitDy=0;" parent="3" source="15" target="21" edge="1">
          <mxGeometry width="50" height="50" relative="1" as="geometry">
            <mxPoint x="119.5" y="132" as="sourcePoint" />
            <mxPoint x="149.5" y="142" as="targetPoint" />
          </mxGeometry>
        </mxCell>
        <mxCell id="Z61d-e_cpG5wXxmXnKD5-144" value="finalização de entrada&#xa;equipamento" style="" parent="3" vertex="1">
          <mxGeometry x="60.25" y="1112" width="136.5" height="50" as="geometry" />
        </mxCell>
        <mxCell id="Z61d-e_cpG5wXxmXnKD5-146" value="ordem de serviço" style="" parent="3" vertex="1">
          <mxGeometry x="60.25" y="1218" width="136.5" height="50" as="geometry" />
        </mxCell>
        <mxCell id="Z61d-e_cpG5wXxmXnKD5-147" value="" style="endArrow=classic;html=1;rounded=0;entryX=0.5;entryY=0;entryDx=0;entryDy=0;exitX=0.5;exitY=1;exitDx=0;exitDy=0;" parent="3" source="Z61d-e_cpG5wXxmXnKD5-144" target="Z61d-e_cpG5wXxmXnKD5-146" edge="1">
          <mxGeometry width="50" height="50" relative="1" as="geometry">
            <mxPoint x="135" y="1122" as="sourcePoint" />
            <mxPoint x="275" y="1202" as="targetPoint" />
          </mxGeometry>
        </mxCell>
        <mxCell id="4" value="Sistema" style="swimlane;whiteSpace=wrap;startSize=23;" parent="1" vertex="1">
          <mxGeometry x="690" y="40" width="280" height="1432" as="geometry" />
        </mxCell>
        <mxCell id="33" value="Start" style="" parent="4" vertex="1">
          <mxGeometry x="85" y="80" width="110" height="50" as="geometry" />
        </mxCell>
        <mxCell id="Z61d-e_cpG5wXxmXnKD5-41" value="" style="edgeStyle=orthogonalEdgeStyle;rounded=0;orthogonalLoop=1;jettySize=auto;html=1;fillColor=#e51400;strokeColor=#000000;" parent="4" source="38" target="33" edge="1">
          <mxGeometry relative="1" as="geometry" />
        </mxCell>
        <mxCell id="38" value="" style="ellipse;shape=endState;fillColor=#000000;strokeColor=#ff0000" parent="4" vertex="1">
          <mxGeometry x="125" y="25" width="30" height="30" as="geometry" />
        </mxCell>
        <mxCell id="30" value="cadastrar técnico" style="" parent="4" vertex="1">
          <mxGeometry x="85" y="161" width="105" height="50" as="geometry" />
        </mxCell>
        <mxCell id="10" value="cadastrar entidade" style="" parent="4" vertex="1">
          <mxGeometry x="85" y="392.5" width="110" height="47.5" as="geometry" />
        </mxCell>
        <mxCell id="Z61d-e_cpG5wXxmXnKD5-91" value="cadastrar máquina" style="" parent="4" vertex="1">
          <mxGeometry x="87.88" y="552" width="114.25" height="50" as="geometry" />
        </mxCell>
        <mxCell id="Z61d-e_cpG5wXxmXnKD5-115" value="adiciona entrada" style="" parent="4" vertex="1">
          <mxGeometry x="76.75" y="797" width="121.5" height="50" as="geometry" />
        </mxCell>
        <mxCell id="Z61d-e_cpG5wXxmXnKD5-118" value="gera documento de &#xa;entrada para assinatura" style="" parent="4" vertex="1">
          <mxGeometry x="69.5" y="891" width="136.5" height="50" as="geometry" />
        </mxCell>
        <mxCell id="Z61d-e_cpG5wXxmXnKD5-119" value="" style="endArrow=classic;html=1;rounded=0;entryX=0.5;entryY=0;entryDx=0;entryDy=0;exitX=0.5;exitY=1;exitDx=0;exitDy=0;" parent="4" source="Z61d-e_cpG5wXxmXnKD5-115" target="Z61d-e_cpG5wXxmXnKD5-118" edge="1">
          <mxGeometry width="50" height="50" relative="1" as="geometry">
            <mxPoint x="138" y="872" as="sourcePoint" />
            <mxPoint x="-115" y="912" as="targetPoint" />
          </mxGeometry>
        </mxCell>
        <mxCell id="Z61d-e_cpG5wXxmXnKD5-135" value="" style="ellipse;shape=endState;fillColor=#000000;strokeColor=#ff0000" parent="4" vertex="1">
          <mxGeometry x="122.5" y="977" width="30" height="30" as="geometry" />
        </mxCell>
        <mxCell id="Z61d-e_cpG5wXxmXnKD5-142" value="" style="endArrow=classic;html=1;rounded=0;exitX=0.5;exitY=1;exitDx=0;exitDy=0;entryX=0.5;entryY=0;entryDx=0;entryDy=0;" parent="4" source="Z61d-e_cpG5wXxmXnKD5-118" target="Z61d-e_cpG5wXxmXnKD5-135" edge="1">
          <mxGeometry width="50" height="50" relative="1" as="geometry">
            <mxPoint x="-85" y="1062" as="sourcePoint" />
            <mxPoint x="-35" y="1012" as="targetPoint" />
          </mxGeometry>
        </mxCell>
        <mxCell id="Z61d-e_cpG5wXxmXnKD5-149" value="finaliza entrada" style="" parent="4" vertex="1">
          <mxGeometry x="80.25" y="1219" width="121.5" height="50" as="geometry" />
        </mxCell>
        <mxCell id="Z61d-e_cpG5wXxmXnKD5-151" value="gera documento de finalização&#xa;de entrada de equipamento" style="" parent="4" vertex="1">
          <mxGeometry x="56" y="1308" width="170.75" height="50" as="geometry" />
        </mxCell>
        <mxCell id="Z61d-e_cpG5wXxmXnKD5-152" value="" style="endArrow=classic;html=1;rounded=0;exitX=0.5;exitY=1;exitDx=0;exitDy=0;entryX=0.5;entryY=0;entryDx=0;entryDy=0;" parent="4" source="Z61d-e_cpG5wXxmXnKD5-149" target="Z61d-e_cpG5wXxmXnKD5-151" edge="1">
          <mxGeometry width="50" height="50" relative="1" as="geometry">
            <mxPoint x="-115" y="1312" as="sourcePoint" />
            <mxPoint x="-65" y="1262" as="targetPoint" />
          </mxGeometry>
        </mxCell>
        <mxCell id="Z61d-e_cpG5wXxmXnKD5-154" value="" style="ellipse;shape=endState;fillColor=#000000;strokeColor=#ff0000" parent="4" vertex="1">
          <mxGeometry x="125.99999999999999" y="1396" width="30" height="30" as="geometry" />
        </mxCell>
        <mxCell id="Z61d-e_cpG5wXxmXnKD5-155" style="edgeStyle=orthogonalEdgeStyle;rounded=0;orthogonalLoop=1;jettySize=auto;html=1;exitX=0.5;exitY=1;exitDx=0;exitDy=0;" parent="4" source="Z61d-e_cpG5wXxmXnKD5-154" target="Z61d-e_cpG5wXxmXnKD5-154" edge="1">
          <mxGeometry relative="1" as="geometry" />
        </mxCell>
        <mxCell id="Z61d-e_cpG5wXxmXnKD5-153" value="" style="endArrow=classic;html=1;rounded=0;exitX=0.5;exitY=1;exitDx=0;exitDy=0;entryX=0.5;entryY=0;entryDx=0;entryDy=0;" parent="4" source="Z61d-e_cpG5wXxmXnKD5-151" target="Z61d-e_cpG5wXxmXnKD5-154" edge="1">
          <mxGeometry width="50" height="50" relative="1" as="geometry">
            <mxPoint x="-335" y="1392" as="sourcePoint" />
            <mxPoint x="140" y="1362" as="targetPoint" />
          </mxGeometry>
        </mxCell>
        <mxCell id="Z61d-e_cpG5wXxmXnKD5-156" value="start" style="" parent="4" vertex="1">
          <mxGeometry x="70.5" y="1113" width="136.5" height="50" as="geometry" />
        </mxCell>
        <mxCell id="Z61d-e_cpG5wXxmXnKD5-143" value="" style="ellipse;shape=endState;fillColor=#000000;strokeColor=#ff0000" parent="4" vertex="1">
          <mxGeometry x="123.5" y="1048" width="30" height="30" as="geometry" />
        </mxCell>
        <mxCell id="Z61d-e_cpG5wXxmXnKD5-158" value="" style="endArrow=classic;html=1;rounded=0;exitX=0.5;exitY=1;exitDx=0;exitDy=0;entryX=0.5;entryY=0;entryDx=0;entryDy=0;" parent="4" source="Z61d-e_cpG5wXxmXnKD5-143" target="Z61d-e_cpG5wXxmXnKD5-156" edge="1">
          <mxGeometry width="50" height="50" relative="1" as="geometry">
            <mxPoint x="65" y="1102" as="sourcePoint" />
            <mxPoint x="15" y="1082" as="targetPoint" />
          </mxGeometry>
        </mxCell>
        <mxCell id="Z61d-e_cpG5wXxmXnKD5-42" style="edgeStyle=orthogonalEdgeStyle;rounded=0;orthogonalLoop=1;jettySize=auto;html=1;fillColor=#e51400;strokeColor=#000000;" parent="1" source="33" target="15" edge="1">
          <mxGeometry relative="1" as="geometry">
            <mxPoint x="640" y="225" as="targetPoint" />
          </mxGeometry>
        </mxCell>
        <mxCell id="Z61d-e_cpG5wXxmXnKD5-73" style="edgeStyle=orthogonalEdgeStyle;rounded=0;orthogonalLoop=1;jettySize=auto;html=1;fillColor=#e51400;strokeColor=#B20000;" parent="1" source="21" target="30" edge="1">
          <mxGeometry relative="1" as="geometry">
            <mxPoint x="660" y="301.4999999999999" as="targetPoint" />
          </mxGeometry>
        </mxCell>
        <mxCell id="Z61d-e_cpG5wXxmXnKD5-77" value="" style="endArrow=classic;html=1;rounded=0;exitX=0.5;exitY=1;exitDx=0;exitDy=0;entryX=1;entryY=0.5;entryDx=0;entryDy=0;fillColor=#e51400;strokeColor=#000000;" parent="1" source="30" target="16" edge="1">
          <mxGeometry width="50" height="50" relative="1" as="geometry">
            <mxPoint x="700" y="400" as="sourcePoint" />
            <mxPoint x="863" y="410" as="targetPoint" />
            <Array as="points">
              <mxPoint x="828" y="310" />
            </Array>
          </mxGeometry>
        </mxCell>
        <mxCell id="Z61d-e_cpG5wXxmXnKD5-79" value="" style="endArrow=classic;html=1;rounded=0;exitX=0;exitY=0.5;exitDx=0;exitDy=0;entryX=1;entryY=0.5;entryDx=0;entryDy=0;fillColor=#e51400;strokeColor=#000000;" parent="1" source="16" target="7" edge="1">
          <mxGeometry width="50" height="50" relative="1" as="geometry">
            <mxPoint x="560" y="530" as="sourcePoint" />
            <mxPoint x="610" y="480" as="targetPoint" />
          </mxGeometry>
        </mxCell>
        <mxCell id="Z61d-e_cpG5wXxmXnKD5-81" value="" style="endArrow=classic;html=1;rounded=0;exitX=0.5;exitY=1;exitDx=0;exitDy=0;fillColor=#e51400;strokeColor=#000000;entryX=0;entryY=0.5;entryDx=0;entryDy=0;" parent="1" source="7" target="8" edge="1">
          <mxGeometry width="50" height="50" relative="1" as="geometry">
            <mxPoint x="560" y="410" as="sourcePoint" />
            <mxPoint x="516" y="454" as="targetPoint" />
            <Array as="points">
              <mxPoint x="270" y="383" />
            </Array>
          </mxGeometry>
        </mxCell>
        <mxCell id="Z61d-e_cpG5wXxmXnKD5-86" value="" style="endArrow=classic;html=1;rounded=0;exitX=1;exitY=0.5;exitDx=0;exitDy=0;fillColor=#e51400;strokeColor=#B20000;" parent="1" source="Z61d-e_cpG5wXxmXnKD5-82" target="10" edge="1">
          <mxGeometry width="50" height="50" relative="1" as="geometry">
            <mxPoint x="560" y="530" as="sourcePoint" />
            <mxPoint x="780" y="530" as="targetPoint" />
          </mxGeometry>
        </mxCell>
        <mxCell id="Z61d-e_cpG5wXxmXnKD5-103" value="" style="endArrow=classic;html=1;rounded=0;exitX=1;exitY=0.5;exitDx=0;exitDy=0;entryX=0;entryY=0.5;entryDx=0;entryDy=0;fillColor=#e51400;strokeColor=#B20000;" parent="1" source="Z61d-e_cpG5wXxmXnKD5-96" target="Z61d-e_cpG5wXxmXnKD5-91" edge="1">
          <mxGeometry width="50" height="50" relative="1" as="geometry">
            <mxPoint x="560" y="770" as="sourcePoint" />
            <mxPoint x="710" y="700" as="targetPoint" />
          </mxGeometry>
        </mxCell>
        <mxCell id="Z61d-e_cpG5wXxmXnKD5-95" value="" style="endArrow=classic;html=1;rounded=0;exitX=0.5;exitY=1;exitDx=0;exitDy=0;entryX=1;entryY=0.5;entryDx=0;entryDy=0;" parent="1" source="Z61d-e_cpG5wXxmXnKD5-91" target="Z61d-e_cpG5wXxmXnKD5-93" edge="1">
          <mxGeometry width="50" height="50" relative="1" as="geometry">
            <mxPoint x="560" y="650" as="sourcePoint" />
            <mxPoint x="610" y="600" as="targetPoint" />
            <Array as="points">
              <mxPoint x="835" y="700" />
            </Array>
          </mxGeometry>
        </mxCell>
        <mxCell id="Z61d-e_cpG5wXxmXnKD5-113" value="" style="endArrow=classic;html=1;rounded=0;exitX=0;exitY=0.5;exitDx=0;exitDy=0;entryX=1;entryY=0.5;entryDx=0;entryDy=0;" parent="1" source="Z61d-e_cpG5wXxmXnKD5-109" target="Z61d-e_cpG5wXxmXnKD5-111" edge="1">
          <mxGeometry width="50" height="50" relative="1" as="geometry">
            <mxPoint x="560" y="770" as="sourcePoint" />
            <mxPoint x="610" y="720" as="targetPoint" />
          </mxGeometry>
        </mxCell>
        <mxCell id="Z61d-e_cpG5wXxmXnKD5-116" value="" style="endArrow=classic;html=1;rounded=0;entryX=0;entryY=0.5;entryDx=0;entryDy=0;exitX=0.5;exitY=1;exitDx=0;exitDy=0;" parent="1" source="Z61d-e_cpG5wXxmXnKD5-111" target="Z61d-e_cpG5wXxmXnKD5-115" edge="1">
          <mxGeometry width="50" height="50" relative="1" as="geometry">
            <mxPoint x="560" y="970" as="sourcePoint" />
            <mxPoint x="610" y="920" as="targetPoint" />
            <Array as="points">
              <mxPoint x="270" y="860" />
            </Array>
          </mxGeometry>
        </mxCell>
        <mxCell id="Z61d-e_cpG5wXxmXnKD5-150" value="" style="endArrow=classic;html=1;rounded=0;exitX=1;exitY=0.5;exitDx=0;exitDy=0;entryX=0;entryY=0.5;entryDx=0;entryDy=0;" parent="1" source="Z61d-e_cpG5wXxmXnKD5-146" target="Z61d-e_cpG5wXxmXnKD5-149" edge="1">
          <mxGeometry width="50" height="50" relative="1" as="geometry">
            <mxPoint x="610" y="1440" as="sourcePoint" />
            <mxPoint x="660" y="1390" as="targetPoint" />
          </mxGeometry>
        </mxCell>
        <mxCell id="Z61d-e_cpG5wXxmXnKD5-157" value="" style="endArrow=classic;html=1;rounded=0;exitX=0;exitY=0.5;exitDx=0;exitDy=0;entryX=1;entryY=0.5;entryDx=0;entryDy=0;" parent="1" source="Z61d-e_cpG5wXxmXnKD5-156" target="Z61d-e_cpG5wXxmXnKD5-144" edge="1">
          <mxGeometry width="50" height="50" relative="1" as="geometry">
            <mxPoint x="690" y="1300" as="sourcePoint" />
            <mxPoint x="740" y="1250" as="targetPoint" />
          </mxGeometry>
        </mxCell>
        <mxCell id="Z61d-e_cpG5wXxmXnKD5-163" value="" style="endArrow=classic;html=1;rounded=0;exitX=0.5;exitY=1;exitDx=0;exitDy=0;entryX=1;entryY=0.5;entryDx=0;entryDy=0;" parent="1" source="10" target="Z61d-e_cpG5wXxmXnKD5-88" edge="1">
          <mxGeometry width="50" height="50" relative="1" as="geometry">
            <mxPoint x="810" y="500" as="sourcePoint" />
            <mxPoint x="750" y="470" as="targetPoint" />
            <Array as="points">
              <mxPoint x="830" y="534" />
            </Array>
          </mxGeometry>
        </mxCell>
      </root>
    </mxGraphModel>
  </diagram>
</mxfile>
